<svg xmlns="http://www.w3.org/2000/svg" height="512" viewBox="0 0 59 59" width="512"><g fill-rule="nonzero" fill="none"><path d="M17.994 27.935A10.99 10.99 0 1117 6c7.672 0 13.49 7.814 9.924 15.967z" fill="#ffed00" data-original="#F0C419" data-old_color="#f0c419"/><g fill="#f3d55b"><path d="M17 4a1 1 0 01-1-1V1a1 1 0 012 0v2a1 1 0 01-1 1zM10 5.875a1 1 0 01-.867-.5l-1-1.731a1 1 0 111.732-1l1 1.731a1 1 0 01-.865 1.5zM4.875 11a.992.992 0 01-.5-.134l-1.732-1a1 1 0 111-1.732l1.732 1a1 1 0 01-.5 1.866zM3 18H1a1 1 0 010-2h2a1 1 0 010 2zM3.145 26a1 1 0 01-.5-1.866l1.732-1a1 1 0 111 1.732l-1.732 1a1 1 0 01-.5.134zM24 5.875a1 1 0 01-.865-1.5l1-1.731a1 1 0 111.732 1l-1 1.731a1 1 0 01-.867.5z" data-original="#F3D55B" data-old_color="#F3D55B" fill="#ffed00"/></g><path d="M36 52a3 3 0 01-6 0c0-1.1 1.333-3.511 2.221-4.625a1 1 0 011.558 0C34.667 48.489 36 50.9 36 52zM26 56a3 3 0 01-6 0c0-1.1 1.333-3.511 2.221-4.625a1 1 0 011.558 0C24.667 52.489 26 54.9 26 56zM16 52a3 3 0 01-6 0c0-1.1 1.333-3.511 2.221-4.625a1 1 0 011.558 0C14.667 48.489 16 50.9 16 52zM40 56a3 3 0 006 0c0-1.1-1.333-3.511-2.221-4.625a1 1 0 00-1.558 0C41.333 52.489 40 54.9 40 56zM50 52a3 3 0 006 0c0-1.1-1.333-3.511-2.221-4.625a1 1 0 00-1.558 0C51.333 48.489 50 50.9 50 52z" fill="#50d1ef" data-original="#2FA8CC" data-old_color="#2fa8cc"/><path d="M31.862 11a10.133 10.133 0 019.175 5.983 8.452 8.452 0 013.1-.586c4.816.068 8.679 4 8.663 8.816A9.1 9.1 0 0159 33.9a9 9 0 01-8.875 9.1H15.874a9.123 9.123 0 01-1.189-18.129 7.739 7.739 0 017.174-5.151A10.233 10.233 0 0131.862 11z" fill="#50d1ef" data-original="#ECF0F1" data-old_color="#ecf0f1"/><path d="M17 40h-2a1 1 0 010-2h2a1 1 0 010 2zM51 40H21a1 1 0 010-2h30a1 1 0 010 2z" fill="#50d1ef" data-original="#D1D4D1" class="active-path" data-old_color="#d1d4d1"/><ellipse cx="13.858" cy="14.555" fill="#ffed00" rx="7" ry="5.5" transform="rotate(-50.8 13.871 14.56)" data-original="#F3D55B" data-old_color="#f3d55b"/></g></svg>