<svg xmlns="http://www.w3.org/2000/svg" height="512" width="512"><path d="M443.499 253.354c-21.547 50.371-71.611 85.634-129.899 85.479-77.124-.205-140.228-63.31-140.433-140.433-.155-58.288 35.108-108.352 85.479-129.899 5.842-2.499 4.03-11.29-2.324-11.301H256C146.206 57.2 57.2 146.206 57.2 256c0 83.791 51.845 155.462 125.202 184.716 3.614 1.441 7.823.246 9.901-3.043 3.103-4.91 8.71-8.076 15.033-7.691 7.439.453 13.761 6.023 15.212 13.332.135.679.225 1.35.274 2.013.293 3.986 3.205 7.258 7.168 7.777a200.16 200.16 0 0026.009 1.696c109.794 0 198.8-89.006 198.8-198.8v-.322c-.01-6.354-8.801-8.166-11.3-2.324z" fill="#fedb41" data-original="#FFE07D" data-old_color="#ffe07d"/><g fill="#ffd064"><path d="M454.8 255.678c-.01-6.354-8.802-8.166-11.301-2.324a140.467 140.467 0 01-12.773 23.387c-9.979 96.257-88.64 172.105-186.131 177.714 3.776.215 7.575.345 11.404.345 109.794 0 198.8-89.006 198.8-198.8l.001-.322zM235.646 68.501c-50.371 21.547-85.634 71.61-85.479 129.899.205 77.124 63.309 140.228 140.433 140.433 3.992.011 7.941-.16 11.85-.475-71.964-5.908-129.088-66.586-129.283-139.958-.155-58.288 35.108-108.352 85.479-129.899 5.842-2.499 4.03-11.29-2.324-11.301H256c-6.563 0-13.048.327-19.448.948 3.533 2.335 3.768 8.353-.906 10.353z" data-original="#FFD064" data-old_color="#FFD064" fill="#fea832"/></g><g fill="#fff0af"><path d="M156.6 16.567h-9.067V7.5a7.5 7.5 0 00-15 0v9.067h-9.066a7.5 7.5 0 000 15h9.066v9.066a7.5 7.5 0 0015 0v-9.066h9.067a7.5 7.5 0 000-15zM388.533 480.433h-9.066v-9.066a7.5 7.5 0 00-15 0v9.066H355.4a7.5 7.5 0 000 15h9.067v9.067a7.5 7.5 0 0015 0v-9.067h9.066a7.5 7.5 0 000-15z" data-original="#FFF0AF" data-old_color="#FFF0AF" fill="#fea832"/></g><circle cx="115.183" cy="305.7" fill="#fea832" r="16.567" data-original="#FFD064" data-old_color="#ffd064"/><circle cx="131.75" cy="239.433" fill="#fea832" transform="rotate(-22.48 131.763 239.196)" data-original="#FFA95F" class="active-path" data-old_color="#ffa95f" r="16.567"/><g fill="#ffe07d"><path d="M463.083 381.033a7.499 7.499 0 00-7.5 7.5V405.1c0 4.143 3.357 7.5 7.5 7.5s7.5-3.357 7.5-7.5v-16.566a7.5 7.5 0 00-7.5-7.501zM463.083 447.3a7.499 7.499 0 00-7.5 7.5v16.566c0 4.143 3.357 7.5 7.5 7.5s7.5-3.357 7.5-7.5V454.8c0-4.143-3.357-7.5-7.5-7.5zM504.5 422.45h-16.566c-4.143 0-7.5 3.357-7.5 7.5s3.357 7.5 7.5 7.5H504.5c4.143 0 7.5-3.357 7.5-7.5s-3.357-7.5-7.5-7.5zM438.233 422.45h-16.566c-4.143 0-7.5 3.357-7.5 7.5s3.357 7.5 7.5 7.5h16.566c4.143 0 7.5-3.357 7.5-7.5s-3.357-7.5-7.5-7.5zM48.917 33.134a7.499 7.499 0 00-7.5 7.5V57.2c0 4.143 3.357 7.5 7.5 7.5s7.5-3.357 7.5-7.5V40.634c0-4.143-3.357-7.5-7.5-7.5zM48.917 99.4a7.499 7.499 0 00-7.5 7.5v16.566c0 4.143 3.357 7.5 7.5 7.5s7.5-3.357 7.5-7.5V106.9a7.5 7.5 0 00-7.5-7.5zM90.333 74.55H73.767c-4.143 0-7.5 3.357-7.5 7.5s3.357 7.5 7.5 7.5h16.566c4.143 0 7.5-3.357 7.5-7.5s-3.357-7.5-7.5-7.5zM24.066 74.55H7.5c-4.143 0-7.5 3.357-7.5 7.5s3.357 7.5 7.5 7.5h16.566c4.143 0 7.5-3.357 7.5-7.5s-3.357-7.5-7.5-7.5z" data-original="#FFE07D" data-old_color="#FFE07D" fill="#fedb41"/></g></svg>