<svg xmlns="http://www.w3.org/2000/svg" viewBox="0 0 385.344 385.344"><g fill="#50d1ef"><path d="M303.204 111.054c45.365 0 82.14 36.775 82.14 82.14s-36.775 82.14-82.14 82.14H64.244C28.765 275.337.002 246.578 0 211.099s28.757-64.242 64.236-64.244H68.605C63.225 91.889 103.423 42.97 158.389 37.59c51.899-5.079 98.988 30.574 108.176 81.905a81.796 81.796 0 0136.639-8.441zM215.524 289.254l20.56 29.36c2.298 3.314 1.474 7.862-1.84 10.16s-7.862 1.474-10.16-1.84l-26.4-37.68h17.84zm-48.64 0l33.28 47.52c2.298 3.314 1.474 7.862-1.84 10.16s-7.863 1.474-10.16-1.84l-39.12-56 17.84.16zm-48.64 0l20.56 29.36c2.298 3.314 1.474 7.862-1.84 10.16s-7.863 1.474-10.16-1.84l-26.12-37.68h17.56zm145.92 0l33.28 47.52c2.298 3.314 1.474 7.862-1.84 10.16s-7.862 1.474-10.16-1.84l-12.76-18.16-26.4-37.68h17.88z"/></g></svg>