<svg height="512" width="512" xmlns="http://www.w3.org/2000/svg"><g fill="#ffda2d"><path d="M271 0h-30c0 66.299-53.699 121-120 121v30c66.301 0 120 53.699 120 120h30c0-66.301 53.699-120 120-120v-30c-66.301 0-120-54.701-120-121zM391 301h-30c0 49.499-40.499 90-90 90v30c49.501 0 90 41.499 90 91h30c0-49.501 40.499-91 90-91v-30c-49.501 0-90-40.501-90-90zM121 241H91c0 32.999-27.001 60-60 60v30c32.999 0 60 26.999 60 60h30c0-33.001 27.001-60 60-60v-30c-32.999 0-60-27.001-60-60zM181 421h30v30h-30z"/></g><path d="M421 241h30v30h-30z" fill="#fdbf00"/><path d="M61 61h30v30H61z" fill="#ffda2d"/><path d="M361 0h30v30h-30zM181 301v30c-32.999 0-60 26.999-60 60h-15V241h15c0 32.999 27.001 60 60 60zM391 121v30c-66.301 0-120 53.699-120 120h-15V0h15c0 66.299 53.699 121 120 121zM481 391v30c-49.501 0-90 41.499-90 91h-15V301h15c0 49.499 40.499 90 90 90z" fill="#fdbf00"/></svg>