<svg xmlns="http://www.w3.org/2000/svg" viewBox="0 0 400 400"><path d="M130.46 65.02a7.28 7.28 0 11-12.6 7.28L97.34 36.78a7.28 7.28 0 1112.601-7.28l20.519 35.52zM72.3 117.86a7.28 7.28 0 01-7.28 12.6l-35.56-20.52a7.28 7.28 0 017.28-12.6l35.56 20.52zm-24 74.8c4.032 0 7.3 3.268 7.3 7.3s-3.268 7.3-7.3 7.3h-41a7.3 7.3 0 01-7.3-7.3 7.3 7.3 0 017.3-7.3h41zm16.68 76.8a7.28 7.28 0 117.28 12.6l-35.48 20.56a7.28 7.28 0 11-7.28-12.601l35.48-20.559zm52.88 58.2a7.28 7.28 0 0112.6 7.28l-20.52 35.56a7.28 7.28 0 11-12.599-7.28l20.519-35.56zm74.8 24a7.3 7.3 0 017.3-7.3 7.3 7.3 0 017.3 7.3v41.04a7.3 7.3 0 01-7.3 7.3 7.3 7.3 0 01-7.3-7.3v-41.04zm76.8-16.68a7.28 7.28 0 0112.6-7.28l20.52 35.56a7.28 7.28 0 11-12.601 7.28l-20.519-35.56zm58.2-52.88a7.28 7.28 0 117.28-12.599l35.56 20.52a7.28 7.28 0 11-7.28 12.599l-35.56-20.52zm24-74.8a7.3 7.3 0 01-7.3-7.3 7.3 7.3 0 017.3-7.3h41.04a7.3 7.3 0 017.3 7.3 7.3 7.3 0 01-7.3 7.3h-41.04zm-16.68-76.8a7.28 7.28 0 11-7.28-12.601l35.56-20.52a7.28 7.28 0 017.28 12.6L334.98 130.5zM282.1 72.3a7.28 7.28 0 01-9.851 2.991 7.28 7.28 0 01-2.748-10.271l20.52-35.56a7.28 7.28 0 019.851-2.991 7.28 7.28 0 012.748 10.271L282.1 72.3zm-74.8-24a7.3 7.3 0 01-7.3 7.3 7.3 7.3 0 01-7.3-7.3v-41A7.3 7.3 0 01200 0a7.3 7.3 0 017.3 7.3v41zm-7.32 51.68c55.228 0 100 44.772 100 100s-44.772 100-100 100-100-44.772-100-100 44.772-100 100-100z" fill="#ffed00"/></svg>