<svg xmlns="http://www.w3.org/2000/svg" viewBox="0 0 480 480"><circle cx="240.027" cy="272" r="200" fill="#1598fc"/><g fill="#3fd100"><path d="M160.027 352c-13.255 0-24-10.745-24-24v-56c0-13.255-10.745-24-24-24h-70.52a203.1 203.1 0 00-1.48 24 199.373 199.373 0 0061.28 144h58.72c13.255 0 24-10.745 24-24v-16c0-13.255-10.745-24-24-24zM224.027 208v40c0 8.837 7.163 16 16 16s16 7.163 16 16v72c0 17.673 14.327 32 32 32h117.72c38.345-56.768 44.986-129.207 17.6-192h-183.32c-8.837 0-16 7.164-16 16z"/></g><circle cx="344.027" cy="288" r="24" fill="#ffd33f"/><path d="M192.027 304a31.799 31.799 0 00-11.272 2.144c-7.612-15.906-26.677-22.63-42.582-15.018A31.93 31.93 0 00120.027 320c-13.255 0-24 10.745-24 24s10.745 24 24 24h72c17.673 0 32-14.327 32-32s-14.327-32-32-32z" fill="#eff2fa"/><path d="M240.027 72a199.031 199.031 0 00-104 29.144V184c0 13.255 10.745 24 24 24h16c13.255 0 24-10.745 24-24s10.745-24 24-24h48c13.255 0 24-10.745 24-24V80a200.02 200.02 0 00-56-8z" fill="#3fd100"/><path d="M264.027 24a31.799 31.799 0 00-11.272 2.144c-7.612-15.906-26.677-22.63-42.582-15.018A31.927 31.927 0 00192.027 40c-13.255 0-24 10.745-24 24s10.745 24 24 24h72c17.673 0 32-14.327 32-32s-14.327-32-32-32z" fill="#75e6ff"/><path d="M240.027 480c114.827.052 207.954-92.991 208.007-207.817.043-94.48-63.623-177.11-154.991-201.159 8.359-20.382-1.387-43.681-21.768-52.041A39.887 39.887 0 00256.027 16a37.873 37.873 0 00-7.552.8A39.559 39.559 0 00216.027 0c-19.328.024-35.883 13.844-39.36 32.856-17.15 4.003-27.808 21.151-23.805 38.302a31.872 31.872 0 004.317 10.13C51.825 127.013 3.486 249.487 49.211 354.841 82.201 430.851 157.167 480.022 240.027 480zm161.264-104H288.027c-13.255 0-24-10.745-24-24v-72c0-13.255-10.745-24-24-24a8 8 0 01-8-8v-40a8 8 0 018-8h177.696c23.785 57.801 17.642 123.601-16.432 176zM144.027 105.808a190.437 190.437 0 0126.68-12.8A31.617 31.617 0 00184.027 96h72a39.769 39.769 0 0027.328-10.952c1.6.368 3.112.8 4.672 1.192V136c0 8.837-7.163 16-16 16h-48c-17.673 0-32 14.327-32 32 0 8.837-7.163 16-16 16h-16c-8.837 0-16-7.163-16-16v-78.192zm40-57.808a8 8 0 008-8c0-13.255 10.745-24 24-24a23.784 23.784 0 0121.52 13.6 8 8 0 0010.04 4c12.393-4.638 26.2 1.649 30.838 14.042 4.638 12.393-1.649 26.2-14.042 30.838a23.965 23.965 0 01-8.356 1.52h-72c-8.837 0-16-7.163-16-16s7.163-16 16-16zm-56 68.24V184c0 17.673 14.327 32 32 32h16c17.673 0 32-14.327 32-32 0-8.837 7.163-16 16-16h48c17.673 0 32-14.327 32-32V91.12A192.593 192.593 0 01410.331 184H240.027c-13.255 0-24 10.745-24 24v40c0 13.255 10.745 24 24 24a8 8 0 018 8v72c.026 22.08 17.92 39.974 40 40h101.72c-65.286 81.729-184.064 95.974-266.824 32h37.104c17.673 0 32-14.327 32-32v-16c22.091 0 40-17.909 40-40s-17.909-40-40-40a37.873 37.873 0 00-7.552.8 39.559 39.559 0 00-32.448-16.8 39.994 39.994 0 00-8 .872V272c0-17.673-14.327-32-32-32H50.811a193.158 193.158 0 0177.216-123.76zm24 179.76a23.784 23.784 0 0121.52 13.6 8 8 0 0010.04 4c12.393-4.638 26.2 1.649 30.838 14.042s-1.649 26.2-14.042 30.838a23.965 23.965 0 01-8.356 1.52h-72c-8.837 0-16-7.163-16-16s7.163-16 16-16a8 8 0 008-8c0-13.255 10.745-24 24-24zM48.739 256h63.288c8.837 0 16 7.163 16 16v16.176a39.944 39.944 0 00-15.36 24.68c-17.2 4.06-27.852 21.296-23.792 38.496 3.41 14.447 16.308 24.652 31.152 24.648h56v16c0 8.837-7.163 16-16 16h-55.384a191.383 191.383 0 01-56.616-136c0-5.376.264-10.704.712-16z"/><path d="M344.027 256c-17.673 0-32 14.327-32 32s14.327 32 32 32 32-14.327 32-32-14.327-32-32-32zm0 48c-8.837 0-16-7.163-16-16s7.163-16 16-16 16 7.163 16 16-7.164 16-16 16zM256.027 136a8 8 0 005.656-2.344l8-8a8 8 0 00-11.312-11.312l-8 8A8 8 0 00256.027 136zM216.027 136a8 8 0 005.656-2.344l8-8a8 8 0 00-11.312-11.312l-8 8A8 8 0 00216.027 136zM176.027 136a8 8 0 005.656-2.344l8-8a8 8 0 00-11.312-11.312l-8 8A8 8 0 00176.027 136zM344.027 240a8 8 0 008-8v-8a8 8 0 00-16 0v8a8 8 0 008 8zM344.027 336a8 8 0 00-8 8v8a8 8 0 0016 0v-8a8 8 0 00-8-8zM299.291 252.944l-7.504-4a8 8 0 00-7.52 14.112l7.504 4a8 8 0 107.52-14.112zM403.787 312.944l-7.504-4a8 8 0 00-7.52 14.112l7.504 4a8 8 0 107.52-14.112zM291.771 308.944l-7.504 4a8 8 0 107.52 14.112l7.504-4a8 8 0 00-7.52-14.112zM392.531 268a7.91 7.91 0 003.752-.944l7.504-4a8 8 0 00-7.52-14.112l-7.504 4A8 8 0 00392.531 268z"/></svg>