<?xml version="1.0" encoding="iso-8859-1"?>
<!-- Generator: Adobe Illustrator 19.0.0, SVG Export Plug-In . SVG Version: 6.00 Build 0)  -->
<svg version="1.1" id="Capa_1" xmlns="http://www.w3.org/2000/svg" xmlns:xlink="http://www.w3.org/1999/xlink" x="0px" y="0px"
	 viewBox="0 0 480 480" style="enable-background:new 0 0 480 480;" xml:space="preserve">
<circle style="fill:#1598FC;" cx="240.027" cy="272" r="200"/>
<g>
	<path style="fill:#3FD100;" d="M160.027,352c-13.255,0-24-10.745-24-24v-56c0-13.255-10.745-24-24-24h-70.52
		c-0.967,7.964-1.461,15.978-1.48,24c-0.053,54.346,22.081,106.358,61.28,144h58.72c13.255,0,24-10.745,24-24v-16
		C184.027,362.745,173.282,352,160.027,352z"/>
	<path style="fill:#3FD100;" d="M224.027,208v40c0,8.837,7.163,16,16,16c8.837,0,16,7.163,16,16v72c0,17.673,14.327,32,32,32h117.72
		c38.345-56.768,44.986-129.207,17.6-192h-183.32C231.19,192,224.027,199.164,224.027,208z"/>
</g>
<circle style="fill:#FFD33F;" cx="344.027" cy="288" r="24"/>
<path style="fill:#EFF2FA;" d="M192.027,304c-3.856,0.025-7.676,0.752-11.272,2.144c-7.612-15.906-26.677-22.63-42.582-15.018
	c-11.112,5.318-18.174,16.554-18.146,28.874c-13.255,0-24,10.745-24,24s10.745,24,24,24h72c17.673,0,32-14.327,32-32
	S209.7,304,192.027,304z"/>
<path style="fill:#3FD100;" d="M240.027,72c-36.69-0.057-72.682,10.029-104,29.144V184c0,13.255,10.745,24,24,24h16
	c13.255,0,24-10.745,24-24s10.745-24,24-24h48c13.255,0,24-10.745,24-24V80C277.833,74.694,258.978,72,240.027,72z"/>
<path style="fill:#75E6FF;" d="M264.027,24c-3.856,0.025-7.676,0.752-11.272,2.144c-7.612-15.906-26.677-22.63-42.582-15.018
	C199.06,16.444,191.998,27.681,192.027,40c-13.255,0-24,10.745-24,24s10.745,24,24,24h72c17.673,0,32-14.327,32-32
	S281.7,24,264.027,24z"/>
<path d="M240.027,480c114.827,0.052,207.954-92.991,208.007-207.817c0.043-94.48-63.623-177.11-154.991-201.159
	c8.359-20.382-1.387-43.681-21.768-52.041c-4.838-1.984-10.019-2.998-15.248-2.983c-2.538,0.013-5.068,0.281-7.552,0.8
	C241.048,6.241,228.936-0.03,216.027,0c-19.328,0.024-35.883,13.844-39.36,32.856c-17.15,4.003-27.808,21.151-23.805,38.302
	c0.841,3.602,2.301,7.03,4.317,10.13C51.825,127.013,3.486,249.487,49.211,354.841C82.201,430.851,157.167,480.022,240.027,480z
	 M401.291,376H288.027c-13.255,0-24-10.745-24-24v-72c0-13.255-10.745-24-24-24c-4.418,0-8-3.582-8-8v-40c0-4.418,3.582-8,8-8
	h177.696C441.508,257.801,435.365,323.601,401.291,376L401.291,376z M144.027,105.808c8.548-4.952,17.468-9.232,26.68-12.8
	c4.169,1.955,8.715,2.977,13.32,2.992h72c10.175-0.02,19.955-3.94,27.328-10.952c1.6,0.368,3.112,0.8,4.672,1.192V136
	c0,8.837-7.163,16-16,16h-48c-17.673,0-32,14.327-32,32c0,8.837-7.163,16-16,16h-16c-8.837,0-16-7.163-16-16V105.808z M184.027,48
	c4.418,0,8-3.582,8-8c0-13.255,10.745-24,24-24c9.2-0.01,17.581,5.286,21.52,13.6c1.804,3.734,6.162,5.47,10.04,4
	c12.393-4.638,26.2,1.649,30.838,14.042c4.638,12.393-1.649,26.2-14.042,30.838c-2.673,1-5.502,1.515-8.356,1.52h-72
	c-8.837,0-16-7.163-16-16S175.19,48,184.027,48z M128.027,116.24V184c0,17.673,14.327,32,32,32h16c17.673,0,32-14.327,32-32
	c0-8.837,7.163-16,16-16h48c17.673,0,32-14.327,32-32V91.12c45.913,16.39,83.902,49.582,106.304,92.88H240.027
	c-13.255,0-24,10.745-24,24v40c0,13.255,10.745,24,24,24c4.418,0,8,3.582,8,8v72c0.026,22.08,17.92,39.974,40,40h101.72
	c-65.286,81.729-184.064,95.974-266.824,32h37.104c17.673,0,32-14.327,32-32v-16c22.091,0,40-17.909,40-40s-17.909-40-40-40
	c-2.538,0.013-5.068,0.281-7.552,0.8c-7.427-10.559-19.539-16.83-32.448-16.8c-2.689,0.021-5.369,0.313-8,0.872V272
	c0-17.673-14.327-32-32-32H50.811C59.384,190.24,87.102,145.815,128.027,116.24z M152.027,296c9.2-0.01,17.581,5.286,21.52,13.6
	c1.804,3.734,6.162,5.47,10.04,4c12.393-4.638,26.2,1.649,30.838,14.042s-1.649,26.2-14.042,30.838c-2.673,1-5.502,1.515-8.356,1.52
	h-72c-8.837,0-16-7.163-16-16s7.163-16,16-16c4.418,0,8-3.582,8-8C128.027,306.745,138.772,296,152.027,296z M48.739,256h63.288
	c8.837,0,16,7.163,16,16v16.176c-8.038,6.005-13.521,14.816-15.36,24.68c-17.2,4.06-27.852,21.296-23.792,38.496
	c3.41,14.447,16.308,24.652,31.152,24.648h56v16c0,8.837-7.163,16-16,16h-55.384c-36.262-35.963-56.646-84.928-56.616-136
	C48.027,266.624,48.291,261.296,48.739,256z"/>
<path d="M344.027,256c-17.673,0-32,14.327-32,32s14.327,32,32,32s32-14.327,32-32S361.7,256,344.027,256z M344.027,304
	c-8.837,0-16-7.163-16-16s7.163-16,16-16s16,7.163,16,16S352.863,304,344.027,304z"/>
<path d="M256.027,136c2.122,0,4.156-0.844,5.656-2.344l8-8c3.069-3.178,2.982-8.243-0.196-11.312c-3.1-2.994-8.015-2.994-11.116,0
	l-8,8c-3.124,3.125-3.123,8.19,0.002,11.314C251.872,135.157,253.906,136,256.027,136L256.027,136z"/>
<path d="M216.027,136c2.122,0,4.156-0.844,5.656-2.344l8-8c3.069-3.178,2.981-8.243-0.197-11.312c-3.1-2.994-8.015-2.994-11.115,0
	l-8,8c-3.124,3.125-3.123,8.19,0.002,11.314C211.872,135.157,213.906,136,216.027,136L216.027,136z"/>
<path d="M176.027,136c2.122,0,4.156-0.844,5.656-2.344l8-8c3.069-3.178,2.981-8.243-0.197-11.312c-3.1-2.994-8.015-2.994-11.115,0
	l-8,8c-3.124,3.125-3.123,8.19,0.002,11.314C171.872,135.157,173.906,136,176.027,136L176.027,136z"/>
<path d="M344.027,240c4.418,0,8-3.582,8-8v-8c0-4.418-3.582-8-8-8s-8,3.582-8,8v8C336.027,236.418,339.608,240,344.027,240z"/>
<path d="M344.027,336c-4.418,0-8,3.582-8,8v8c0,4.418,3.582,8,8,8s8-3.582,8-8v-8C352.027,339.582,348.445,336,344.027,336z"/>
<path d="M299.291,252.944l-7.504-4c-3.968-1.943-8.76-0.301-10.703,3.667c-1.849,3.777-0.458,8.341,3.183,10.445l7.504,4
	c3.826,2.21,8.719,0.901,10.929-2.925c2.21-3.826,0.901-8.719-2.925-10.929C299.617,253.111,299.455,253.025,299.291,252.944z"/>
<path d="M403.787,312.944l-7.504-4c-3.968-1.943-8.76-0.301-10.703,3.667c-1.849,3.777-0.458,8.341,3.183,10.445l7.504,4
	c3.826,2.21,8.719,0.901,10.929-2.925c2.21-3.826,0.901-8.719-2.925-10.929C404.113,313.111,403.951,313.025,403.787,312.944z"/>
<path d="M291.771,308.944l-7.504,4c-3.968,1.943-5.61,6.735-3.667,10.703c1.943,3.968,6.735,5.61,10.703,3.667
	c0.164-0.08,0.326-0.167,0.484-0.258l7.504-4c3.826-2.21,5.135-7.103,2.925-10.929C300.112,308.486,295.548,307.095,291.771,308.944
	z"/>
<path d="M392.531,268c1.31,0.001,2.599-0.324,3.752-0.944l7.504-4c3.826-2.21,5.135-7.103,2.925-10.929
	c-2.104-3.641-6.668-5.032-10.445-3.183l-7.504,4c-3.897,2.082-5.368,6.929-3.286,10.826
	C386.868,266.373,389.579,267.999,392.531,268L392.531,268z"/>
<g>
</g>
<g>
</g>
<g>
</g>
<g>
</g>
<g>
</g>
<g>
</g>
<g>
</g>
<g>
</g>
<g>
</g>
<g>
</g>
<g>
</g>
<g>
</g>
<g>
</g>
<g>
</g>
<g>
</g>
</svg>
